<svg width="150.000000" height="150.000000" viewBox="0 0 150 150" fill="none" xmlns="http://www.w3.org/2000/svg" xmlns:xlink="http://www.w3.org/1999/xlink">
	<desc>
			Created with Pixso.
	</desc>
	<defs>
		<clipPath id="clip1008_7836">
			<rect id="Anxious-Face-With-Sweat--Streamline-Openmoji.svg" rx="0.000000" width="149.000000" height="149.000000" transform="translate(0.500000 0.500000)" fill="white" fill-opacity="0"/>
		</clipPath>
	</defs>
	<rect id="Anxious-Face-With-Sweat--Streamline-Openmoji.svg" rx="0.000000" width="149.000000" height="149.000000" transform="translate(0.500000 0.500000)" fill="#FFFFFF" fill-opacity="0"/>
	<g clip-path="url(#clip1008_7836)">
		<path id="Vector" d="M13.44 75C13.41 126.53 69.18 158.77 113.82 133.03C134.57 121.07 147.34 98.94 147.33 75C147.35 23.46 91.58 -8.78 46.94 16.96C26.2 28.92 13.42 51.05 13.44 75Z" fill="#FCEA2B" fill-opacity="1.000000" fill-rule="nonzero"/>
		<path id="Vector" d="M5.76 51.91C5.05 49.01 5.51 46 7.07 43.45C12.17 35.04 25.01 31.83 25.56 31.7C26.69 31.42 27.83 32.12 28.1 33.25C28.23 33.79 31.29 46.66 26.18 55.07C22.98 60.34 16.08 62.02 10.81 58.82C8.26 57.27 6.46 54.82 5.76 51.91Z" fill="#92D3F5" fill-opacity="1.000000" fill-rule="nonzero"/>
		<path id="Vector" d="M63.65 61.05C63.65 65.67 59.89 69.42 55.28 69.42C50.66 69.42 46.91 65.67 46.91 61.05C46.91 56.43 50.66 52.68 55.28 52.68C59.89 52.68 63.65 56.43 63.65 61.05Z" fill="#000000" fill-opacity="1.000000" fill-rule="nonzero"/>
		<path id="Vector" d="M113.86 61.05C113.86 65.67 110.1 69.42 105.49 69.42C100.87 69.42 97.12 65.67 97.12 61.05C97.12 56.43 100.87 52.68 105.49 52.68C110.1 52.68 113.86 56.43 113.86 61.05Z" fill="#000000" fill-opacity="1.000000" fill-rule="nonzero"/>
		<path id="Vector" d="M53.89 108.47C59.12 97.78 70.13 91.19 81.78 91.73C92.48 92.24 102.12 98.69 106.89 108.47" stroke="#000000" stroke-opacity="1.000000" stroke-width="1.000000" stroke-linejoin="round" stroke-linecap="round"/>
		<path id="Vector" d="M44.53 42.22C45.89 42.86 51.86 45.46 58.94 43.15C64.68 41.28 67.8 37.26 68.81 35.83" stroke="#000000" stroke-opacity="1.000000" stroke-width="1.000000" stroke-linejoin="round" stroke-linecap="round"/>
		<path id="Vector" d="M116.23 42.22C114.87 42.86 108.91 45.46 101.83 43.15C96.09 41.28 92.97 37.26 91.96 35.83" stroke="#000000" stroke-opacity="1.000000" stroke-width="1.000000" stroke-linejoin="round" stroke-linecap="round"/>
		<path id="Vector" d="M7.07 43.45C12.17 35.04 25.01 31.83 25.56 31.7C26.69 31.42 27.83 32.12 28.1 33.25C28.23 33.79 31.29 46.66 26.18 55.07C22.98 60.34 16.08 62.02 10.81 58.82C8.26 57.27 6.46 54.82 5.76 51.91C5.05 49.01 5.51 46 7.07 43.45Z" stroke="#000000" stroke-opacity="1.000000" stroke-width="1.000000"/>
		<path id="Vector" d="M41.32 24.08C52.14 15.76 65.69 10.82 80.38 10.82C115.82 10.82 144.56 39.56 144.56 75C144.56 110.44 115.83 139.17 80.38 139.17C44.94 139.17 16.21 110.44 16.21 75C16.21 73.89 16.24 72.79 16.29 71.7" stroke="#000000" stroke-opacity="1.000000" stroke-width="1.000000" stroke-linecap="round"/>
	</g>
</svg>
