<svg width="96" height="81" viewBox="0 0 96 81" fill="none" xmlns="http://www.w3.org/2000/svg">
<path d="M46.9944 28.9109C47.625 28.9109 48.0979 28.777 48.4131 28.5093C48.7284 28.2416 48.886 27.8847 48.886 27.4386C48.886 26.9924 48.7284 26.5909 48.4131 26.234C48.0979 25.8771 47.6775 25.6986 47.1521 25.6986C46.6266 25.6986 46.1537 25.8771 45.7333 26.234C45.313 26.5909 45.1028 26.9924 45.1028 27.4386C45.1028 27.8847 45.313 28.2416 45.7333 28.5093C46.1537 28.777 46.5741 28.9109 46.9944 28.9109ZM35.6447 28.9109C36.065 28.9109 36.4854 28.777 36.9057 28.5093C37.3261 28.2416 37.5363 27.8847 37.5363 27.4386C37.5363 26.9924 37.3261 26.5909 36.9057 26.234C36.4854 25.8771 36.065 25.6986 35.6447 25.6986C35.2243 25.6986 34.8039 25.8771 34.3836 26.234C33.9632 26.5909 33.753 26.9924 33.753 27.4386C33.753 27.8847 33.9632 28.2416 34.3836 28.5093C34.8039 28.777 35.2243 28.9109 35.6447 28.9109ZM85.4575 32.3908C85.0371 32.3908 84.6693 32.5246 84.354 32.7923C84.0388 33.06 83.8811 33.4169 83.8811 33.8631C83.8811 34.3092 84.0388 34.7107 84.354 35.0676C84.6693 35.4246 85.0371 35.603 85.4575 35.603C87.3491 35.603 88.8729 36.0938 90.0289 37.0753C91.1849 38.0568 91.7629 39.2614 91.7629 40.6891V64.2455C91.7629 65.8516 91.1849 67.1454 90.0289 68.1269C88.8729 69.1084 87.3491 69.5992 85.4575 69.5992H42.2653C40.5839 69.5992 39.1126 69.1084 37.8516 68.1269C36.5905 67.1454 35.9599 65.8516 35.9599 64.2455V40.6891C35.9599 39.2614 36.5905 38.0568 37.8516 37.0753C39.1126 36.0938 40.5839 35.603 42.2653 35.603H69.0634C69.4837 35.603 69.8516 35.4246 70.1668 35.0676C70.4821 34.7107 70.6397 34.3092 70.6397 33.8631C70.6397 33.4169 70.4821 33.06 70.1668 32.7923C69.8516 32.5246 69.4837 32.3908 69.0634 32.3908H57.3984C57.6085 31.32 57.7136 30.2493 57.7136 29.1785V22.4864H60.2358C60.6562 22.4864 61.0765 22.3525 61.4969 22.0849C61.9172 21.8172 62.1274 21.5049 62.1274 21.1479V15.5265C62.1274 12.6712 61.2867 10.0836 59.6053 7.76363C57.9238 5.44368 55.6644 3.56987 52.8269 2.14221C49.9895 0.714554 46.8893 0.000724792 43.5264 0.000724792C41.0043 0.000724792 38.6923 0.580711 36.5905 1.74068C34.4887 2.90066 32.9123 4.46216 31.8614 6.42519C28.7087 6.60365 26.134 7.62978 24.1373 9.50359C22.1405 11.3774 21.1422 13.5635 21.1422 16.0619V20.6126C21.1422 21.3264 21.51 21.7725 22.2456 21.951C22.9813 22.1295 23.7694 22.3079 24.6102 22.4864V29.1785C24.6102 31.4985 25.2933 33.7292 26.6594 35.8707C28.0256 38.0122 29.8647 39.7075 32.1767 40.9567V42.0275H29.9698C24.7153 42.0275 19.8811 43.1428 15.4673 45.3736C11.0535 47.6043 7.53299 50.5935 4.90573 54.3411C2.27847 58.0887 0.964844 62.2824 0.964844 66.9223V70.9376C0.964844 73.436 2.06829 75.6221 4.27519 77.4959C6.48209 79.3697 9.0568 80.3066 11.9993 80.3066H80.4131C81.0437 80.3066 81.5166 80.1728 81.8319 79.9051C82.1471 79.6374 82.3048 79.2805 82.3048 78.8344C82.3048 78.3882 82.1471 77.9867 81.8319 77.6298C81.5166 77.2729 81.0437 77.0944 80.4131 77.0944H78.8368C80.0979 75.8452 80.9386 74.4175 81.359 72.8114H85.4575C88.4 72.8114 90.8171 71.9637 92.7087 70.2684C94.6003 68.5731 95.5462 66.5654 95.5462 64.2455V40.6891C95.5462 38.3691 94.6003 36.4061 92.7087 34.8C90.8171 33.1938 88.4 32.3908 85.4575 32.3908ZM56.7678 72.8114V77.0944H46.0486V76.2913C46.0486 75.0421 45.6282 73.8822 44.7875 72.8114H56.7678ZM43.5264 3.21296C47.73 3.21296 51.2506 4.41755 54.088 6.82672C56.9254 9.2359 58.3442 12.1358 58.3442 15.5265V19.5418H43.5264C41.0043 19.5418 38.7974 18.7388 36.9057 17.1327C35.0141 15.5265 34.0683 13.6081 34.0683 11.3774C34.0683 9.14668 35.0141 7.22826 36.9057 5.62214C38.7974 4.01601 41.0043 3.21296 43.5264 3.21296ZM24.6102 16.0619C24.6102 14.6342 25.1882 13.2958 26.3442 12.0466C27.5002 10.7974 28.9189 9.99435 30.6003 9.63743L30.285 11.2436C30.285 13.5635 31.0207 15.705 32.4919 17.668C30.18 19.2741 27.5527 19.8095 24.6102 19.2741V16.0619ZM28.3934 29.1785V22.4864C30.9156 22.1295 33.1225 21.2372 35.0141 19.8095C37.5363 21.5941 40.3737 22.4864 43.5264 22.4864H54.2456V29.1785C54.2456 30.2493 54.0355 31.32 53.6151 32.3908H42.2653C40.1635 32.3908 38.2719 32.8815 36.5905 33.8631C34.909 34.8446 33.753 36.0492 33.1225 37.4768C31.6512 36.5845 30.4952 35.3799 29.6545 33.8631C28.8138 32.3462 28.3934 30.7847 28.3934 29.1785ZM11.9993 77.0944C9.89752 77.0944 8.16353 76.5144 6.79736 75.3544C5.43118 74.1945 4.7481 72.7222 4.7481 70.9376V66.9223C4.7481 62.9963 5.85154 59.3825 8.05844 56.081C10.2653 52.7796 13.3655 50.1473 17.3589 48.1843C21.3524 46.2212 25.556 45.2397 29.9698 45.2397H32.1767V64.2455C32.1767 65.3162 32.3869 66.2977 32.8072 67.19H19.5658C19.1455 67.19 18.7251 67.3239 18.3048 67.5915C17.8844 67.8592 17.6742 68.2161 17.6742 68.6623C17.6742 69.1084 17.8844 69.4653 18.3048 69.733C18.7251 70.0007 19.1455 70.1346 19.5658 70.1346H32.1767V77.0944H11.9993ZM35.9599 77.0944V72.8114H38.1668C39.2177 72.8114 40.1635 73.1683 41.0043 73.8822C41.845 74.596 42.2653 75.3991 42.2653 76.2913V77.0944H35.9599ZM60.5511 72.8114H67.487V77.0944H60.5511V72.8114ZM71.2703 77.0944V72.8114H77.5757C77.1553 74.0606 76.3672 75.0868 75.2112 75.8898C74.0552 76.6929 72.7415 77.0944 71.2703 77.0944ZM64.019 46.8458C62.1274 46.8458 60.4985 47.3812 59.1323 48.452C57.7662 49.5227 57.0831 50.8611 57.0831 52.4673C57.0831 54.0734 57.7662 55.4564 59.1323 56.6164C60.4985 57.7764 62.1274 58.3564 64.019 58.3564C65.9107 58.3564 67.487 57.7764 68.7481 56.6164C70.0092 55.4564 70.6397 54.0734 70.6397 52.4673C70.6397 50.8611 70.0092 49.5227 68.7481 48.452C67.487 47.3812 65.9107 46.8458 64.019 46.8458ZM64.019 55.1441C62.9681 55.1441 62.18 54.921 61.6545 54.4749C61.1291 54.0288 60.8663 53.4042 60.8663 52.6011C60.8663 51.798 61.1291 51.1288 61.6545 50.5935C62.18 50.0581 62.9156 49.7904 63.8614 49.7904C64.8072 49.7904 65.5954 50.0581 66.2259 50.5935C66.8565 51.1288 67.1718 51.798 67.1718 52.6011C67.1718 53.4042 66.8565 54.0288 66.2259 54.4749C65.5954 54.921 64.8598 55.1441 64.019 55.1441ZM77.2604 35.603C77.6808 35.603 78.1012 35.4246 78.5215 35.0676C78.9419 34.7107 79.1521 34.3092 79.1521 33.8631C79.1521 33.4169 78.9419 33.06 78.5215 32.7923C78.1012 32.5246 77.6808 32.3908 77.2604 32.3908C76.8401 32.3908 76.4197 32.5246 75.9993 32.7923C75.579 33.06 75.3688 33.4169 75.3688 33.8631C75.3688 34.3092 75.579 34.7107 75.9993 35.0676C76.4197 35.4246 76.8401 35.603 77.2604 35.603Z" fill="white"/>
</svg>
