<svg width="96" height="76" viewBox="0 0 96 76" fill="none" xmlns="http://www.w3.org/2000/svg">
<path d="M28.7087 12.4549C28.4985 12.098 28.1307 11.8749 27.6052 11.7857C27.0798 11.6965 26.6069 11.7411 26.1865 11.9196C25.7661 12.2765 25.4509 12.6334 25.2407 12.9903C25.0305 13.3472 25.083 13.7487 25.3983 14.1949C25.7136 14.641 26.1339 14.8641 26.6594 14.8641C27.1848 14.8641 27.6578 14.7749 28.0781 14.5964C28.4985 14.418 28.7612 14.1057 28.8663 13.6595C28.9714 13.2134 28.9188 12.8118 28.7087 12.4549ZM94.6002 24.7685L49.2012 0.944412C48.5707 0.587494 47.9402 0.587494 47.3096 0.944412L32.1766 8.975C31.5461 9.15346 31.1783 9.46576 31.0732 9.9119C30.9681 10.358 31.0732 10.7596 31.3885 11.1165C31.7037 11.4734 32.1241 11.6965 32.6495 11.7857C33.175 11.8749 33.6479 11.8303 34.0683 11.6519L48.2554 4.15665L90.1864 26.1069L48.2554 48.0572L25.556 36.279L44.7875 26.6423C45.8384 27.3561 47.0469 27.713 48.4131 27.713C49.7792 27.713 51.0403 27.2223 52.1963 26.2408C53.3523 25.2593 53.9303 24.1439 53.9303 22.8947C53.9303 21.6455 53.3523 20.5747 52.1963 19.6825C51.0403 18.7902 49.7267 18.344 48.2554 18.344C46.7842 18.344 45.4705 18.7902 44.3146 19.6825C43.1586 20.5747 42.5806 21.6455 42.5806 22.8947L42.8958 23.9654L22.088 34.4052L6.32444 26.1069L20.8269 18.344C21.2473 18.1656 21.51 17.8533 21.6151 17.4071C21.7202 16.961 21.6676 16.5594 21.4574 16.2025C21.2473 15.8456 20.8794 15.6225 20.354 15.5333C19.8285 15.4441 19.3556 15.4887 18.9353 15.6672L1.91066 24.7685C1.28011 25.1254 0.964844 25.5716 0.964844 26.1069C0.964844 26.6423 1.28011 27.0884 1.91066 27.4454L18.62 36.0113L16.4131 37.0821C14.7317 37.9744 13.418 39.1343 12.4722 40.562C11.5264 41.9897 11.0535 43.5065 11.0535 45.1127V47.7895C10.0026 48.1464 9.10933 48.6818 8.3737 49.3956C7.63807 50.1095 7.27026 51.0018 7.27026 52.0725V54.7494C5.79899 55.9986 5.06336 57.6047 5.06336 59.5677V74.0228C5.06336 74.5582 5.221 74.9597 5.53627 75.2274C5.85154 75.4951 6.32444 75.6289 6.95499 75.6289H18.62C19.2505 75.6289 19.7234 75.4951 20.0387 75.2274C20.354 74.9597 20.5116 74.5582 20.5116 74.0228V59.5677C20.5116 57.6047 19.776 55.9986 18.3047 54.7494V52.0725C18.3047 51.0018 17.9369 50.1095 17.2013 49.3956C16.4656 48.6818 15.5724 48.1464 14.5215 47.7895V45.1127C14.5215 44.0419 14.8368 43.0604 15.4673 42.1681C16.0978 41.2758 17.0436 40.562 18.3047 40.0266L20.5116 38.6882V53.9463C20.5116 54.3032 20.7218 54.6601 21.1422 55.0171C21.5625 55.374 21.9829 55.5524 22.4032 55.5524C27.0272 55.5524 31.441 56.3109 35.6446 57.8278C39.8482 59.3447 43.6315 61.5308 46.9944 64.3861C47.4147 64.5645 47.8351 64.6538 48.2554 64.6538C48.6758 64.6538 49.0962 64.5645 49.5165 64.3861C52.8794 61.5308 56.6627 59.3447 60.8663 57.8278C65.0699 56.3109 69.4837 55.5524 74.1076 55.5524C74.528 55.5524 74.9483 55.374 75.3687 55.0171C75.7891 54.6601 75.9992 54.3032 75.9992 53.9463V51.2694C75.9992 50.7341 75.7891 50.3325 75.3687 50.0649C74.9483 49.7972 74.528 49.6633 74.1076 49.6633C73.6873 49.6633 73.2669 49.7972 72.8465 50.0649C72.4262 50.3325 72.216 50.7341 72.216 51.2694V52.3402C64.019 52.6971 56.6627 55.1063 50.1471 59.5677V56.3555C50.1471 55.9986 49.9369 55.6417 49.5165 55.2847C49.0962 54.9278 48.6758 54.7494 48.2554 54.7494C47.8351 54.7494 47.4147 54.9278 46.9944 55.2847C46.574 55.6417 46.3638 55.9986 46.3638 56.3555V59.5677C39.8482 55.1063 32.4919 52.6971 24.2949 52.3402V39.2236L47.3096 51.2694C47.5198 51.4479 47.8351 51.5371 48.2554 51.5371C48.6758 51.5371 48.9911 51.4479 49.2012 51.2694L72.216 39.2236V40.8297C72.216 41.3651 72.4262 41.7666 72.8465 42.0343C73.2669 42.302 73.6873 42.4358 74.1076 42.4358C74.528 42.4358 74.9483 42.302 75.3687 42.0343C75.7891 41.7666 75.9992 41.3651 75.9992 40.8297V37.3498L94.6002 27.4454C95.2308 27.0884 95.546 26.6423 95.546 26.1069C95.546 25.5716 95.2308 25.1254 94.6002 24.7685ZM48.2554 21.2886C48.6758 21.2886 49.0962 21.467 49.5165 21.8239C49.9369 22.1809 50.1471 22.5824 50.1471 23.0285C50.1471 23.4747 49.9369 23.8316 49.5165 24.0993C49.0962 24.367 48.6758 24.5008 48.2554 24.5008C47.8351 24.5008 47.4147 24.367 46.9944 24.0993C46.574 23.8316 46.3638 23.4747 46.3638 23.0285C46.3638 22.5824 46.574 22.1809 46.9944 21.8239C47.4147 21.467 47.8351 21.2886 48.2554 21.2886ZM11.0535 52.0725C11.0535 51.7156 11.2111 51.3587 11.5264 51.0018C11.8417 50.6448 12.262 50.4664 12.7875 50.4664C13.3129 50.4664 13.7333 50.6448 14.0486 51.0018C14.3638 51.3587 14.5215 51.7156 14.5215 52.0725V52.8756H11.0535V52.0725ZM16.7284 59.5677V72.4167H8.84661V59.5677C8.84661 58.497 9.21442 57.6493 9.95006 57.0247C10.6857 56.4001 11.6315 56.0878 12.7875 56.0878C13.9435 56.0878 14.8893 56.4001 15.6249 57.0247C16.3606 57.6493 16.7284 58.497 16.7284 59.5677ZM75.3687 44.5773C74.9483 44.2204 74.528 44.0419 74.1076 44.0419C73.6873 44.0419 73.2669 44.2204 72.8465 44.5773C72.4262 44.9342 72.216 45.3357 72.216 45.7819C72.216 46.228 72.4262 46.5849 72.8465 46.8526C73.2669 47.1203 73.6873 47.2542 74.1076 47.2542C74.528 47.2542 74.9483 47.1203 75.3687 46.8526C75.7891 46.5849 75.9992 46.228 75.9992 45.7819C75.9992 45.3357 75.7891 44.9342 75.3687 44.5773Z" fill="white"/>
</svg>
