<svg width="96" height="72" viewBox="0 0 96 72" fill="none" xmlns="http://www.w3.org/2000/svg">
<path d="M93.6545 57.2852H91.7629V17.9353C91.7629 15.6153 90.8696 13.6969 89.0831 12.18C87.2965 10.6631 85.1422 9.90467 82.62 9.90467H76.9452V6.15706C76.9452 4.37248 76.2621 2.90021 74.8959 1.74023C73.5297 0.580261 71.9008 0.000274658 70.0092 0.000274658H46.6791C44.5773 0.000274658 42.8433 0.580261 41.4772 1.74023C40.111 2.90021 39.4279 4.37248 39.4279 6.15706V9.90467H13.891C11.3688 9.90467 9.21443 10.6631 7.4279 12.18C5.64136 13.6969 4.7481 15.6153 4.7481 17.9353V57.2852H2.85647C2.22593 57.2852 1.75302 57.4636 1.43775 57.8205C1.12248 58.1775 0.964844 58.5344 0.964844 58.8913C0.964844 62.4604 2.43611 65.4942 5.37864 67.9926C8.32117 70.491 11.8942 71.7402 16.0979 71.7402H40.0584C40.4788 71.7402 40.8466 71.6064 41.1619 71.3387C41.4772 71.071 41.6348 70.7141 41.6348 70.268C41.6348 69.8218 41.4772 69.4203 41.1619 69.0634C40.8466 68.7065 40.4788 68.528 40.0584 68.528H16.0979C13.3655 68.528 10.8959 67.7696 8.68898 66.2527C6.48209 64.7358 5.16846 62.8174 4.7481 60.4974H91.7629C91.3425 62.8174 90.0289 64.7358 87.822 66.2527C85.6151 67.7696 83.1455 68.528 80.4131 68.528H56.4525C56.0322 68.528 55.6644 68.7065 55.3491 69.0634C55.0338 69.4203 54.8762 69.8218 54.8762 70.268C54.8762 70.7141 55.0338 71.071 55.3491 71.3387C55.6644 71.6064 56.0322 71.7402 56.4525 71.7402H80.4131C84.6167 71.7402 88.1898 70.491 91.1323 67.9926C94.0749 65.4942 95.5461 62.4604 95.5461 58.8913C95.5461 58.5344 95.3885 58.1775 95.0732 57.8205C94.758 57.4636 94.2851 57.2852 93.6545 57.2852ZM43.2112 6.15706C43.2112 5.26477 43.5264 4.55094 44.157 4.01557C44.7875 3.48019 45.6282 3.21251 46.6791 3.21251H70.0092C70.8499 3.21251 71.6381 3.48019 72.3737 4.01557C73.1094 4.55094 73.4772 5.26477 73.4772 6.15706V20.6121C73.4772 21.326 73.1094 21.9952 72.3737 22.6198C71.6381 23.2444 70.8499 23.5567 70.0092 23.5567H52.6693C52.0387 23.5567 51.6184 23.6459 51.4082 23.8244L48.2555 26.2335V24.8951C48.2555 24.5382 48.0979 24.2259 47.7826 23.9582C47.4673 23.6905 46.9419 23.5567 46.2062 23.5567C45.4706 23.5567 44.7875 23.2444 44.157 22.6198C43.5264 21.9952 43.2112 21.326 43.2112 20.6121V6.15706ZM8.21608 17.9353C8.21608 16.5076 8.79407 15.3476 9.95007 14.4553C11.1061 13.563 12.4197 13.1169 13.891 13.1169H39.4279V16.3291H13.891C13.4706 16.3291 13.0502 16.463 12.6299 16.7307C12.2095 16.9984 11.9993 17.3999 11.9993 17.9353V57.2852H8.21608V17.9353ZM23.3491 57.2852V56.4821C23.3491 54.1622 24.2949 52.1545 26.1865 50.4592C28.0781 48.7638 30.3901 47.9161 33.1225 47.9161H34.0683V50.8607C34.0683 51.3961 34.2259 51.7976 34.5412 52.0653C34.8565 52.333 35.2768 52.4668 35.8023 52.4668C36.3277 52.4668 36.7481 52.333 37.0634 52.0653C37.3786 51.7976 37.5363 51.3961 37.5363 50.8607V47.9161H38.4821C41.2144 47.9161 43.5264 48.7638 45.4181 50.4592C47.3097 52.1545 48.2555 54.1622 48.2555 56.4821V57.2852H23.3491ZM40.689 40.6886C40.689 41.7594 40.2161 42.6963 39.2703 43.4993C38.3245 44.3024 37.1685 44.7039 35.8023 44.7039C34.4361 44.7039 33.2801 44.3024 32.3343 43.4993C31.3885 42.6963 30.9156 41.7594 30.9156 40.6886V39.6179C30.9156 38.5471 31.3885 37.6102 32.3343 36.8072C33.2801 36.0041 34.4361 35.6026 35.8023 35.6026C37.1685 35.6026 38.3245 36.0041 39.2703 36.8072C40.2161 37.6102 40.689 38.5471 40.689 39.6179V40.6886ZM52.0387 57.2852V56.4821C52.0387 53.8052 51.1455 51.4407 49.3589 49.3884C47.5724 47.3362 45.2079 45.9531 42.2653 45.2393C43.5264 43.9901 44.157 42.4732 44.157 40.6886V39.6179C44.157 37.6548 43.3688 35.9595 41.7924 34.5318C40.2161 33.1042 38.2194 32.3903 35.8023 32.3903C33.3852 32.3903 31.3885 33.1042 29.8121 34.5318C28.2358 35.9595 27.4476 37.6548 27.4476 39.6179V40.6886C27.4476 42.4732 28.0781 43.9901 29.3392 45.2393C26.3967 45.9531 24.0322 47.3362 22.2456 49.3884C20.4591 51.4407 19.5658 53.8052 19.5658 56.4821V57.2852H15.7826V19.2737H39.4279V20.6121C39.4279 21.8613 39.9008 23.0659 40.8466 24.2259C41.7924 25.3859 43.1061 26.1443 44.7875 26.5012V30.2488C44.7875 30.7842 45.1028 31.2304 45.7333 31.5873H46.6791C47.0995 31.5873 47.5199 31.498 47.9402 31.3196L53.2998 26.5012H70.0092C71.9008 26.5012 73.5297 25.9212 74.8959 24.7613C76.2621 23.6013 76.9452 22.2182 76.9452 20.6121V19.2737H80.7284V57.2852H52.0387ZM84.5117 57.2852V17.9353C84.5117 17.3999 84.3015 16.9984 83.8811 16.7307C83.4608 16.463 83.0404 16.3291 82.62 16.3291H76.9452V13.1169H82.62C84.0913 13.1169 85.4049 13.563 86.5609 14.4553C87.7169 15.3476 88.2949 16.5076 88.2949 17.9353V57.2852H84.5117ZM52.354 62.9066H44.157C43.7366 62.9066 43.3162 63.085 42.8959 63.442C42.4755 63.7989 42.2653 64.2004 42.2653 64.6465C42.2653 65.0927 42.4755 65.4496 42.8959 65.7173C43.3162 65.985 43.7366 66.1188 44.157 66.1188H52.354C52.9846 66.1188 53.4575 65.985 53.7727 65.7173C54.088 65.4496 54.2456 65.0927 54.2456 64.6465C54.2456 64.2004 54.088 63.7989 53.7727 63.442C53.4575 63.085 52.9846 62.9066 52.354 62.9066ZM53.9304 19.2737C54.5609 19.6306 55.1915 19.8091 55.822 19.8091C56.4525 19.8091 56.978 19.6306 57.3983 19.2737L64.3343 15.7938C65.5954 15.2584 66.2259 14.4107 66.2259 13.2508C66.2259 12.0908 65.5954 11.2431 64.3343 10.7077L57.3983 7.22781C56.3474 6.69244 55.1915 6.69244 53.9304 7.22781C52.6693 7.76318 52.0387 8.65547 52.0387 9.90467V16.5968C52.0387 17.846 52.6693 18.7383 53.9304 19.2737ZM55.822 10.1724L62.4427 13.3846L55.822 16.3291V10.1724ZM48.2555 68.528C47.8351 68.528 47.4148 68.7065 46.9944 69.0634C46.574 69.4203 46.3639 69.8218 46.3639 70.268C46.3639 70.7141 46.574 71.071 46.9944 71.3387C47.4148 71.6064 47.8351 71.7402 48.2555 71.7402C48.6759 71.7402 49.0962 71.6064 49.5166 71.3387C49.9369 71.071 50.1471 70.7141 50.1471 70.268C50.1471 69.8218 49.9369 69.4203 49.5166 69.0634C49.0962 68.7065 48.6759 68.528 48.2555 68.528Z" fill="white"/>
</svg>
