<svg width="14" height="14" viewBox="0 0 14 14" fill="none" xmlns="http://www.w3.org/2000/svg">
<path fill-rule="evenodd" clip-rule="evenodd" d="M1.042 6.7982C1.042 9.8422 3.249 11.9162 5.728 12.3452C5.79543 12.3569 5.85991 12.3817 5.91773 12.4184C5.97556 12.455 6.02561 12.5026 6.06503 12.5585C6.10445 12.6145 6.13246 12.6776 6.14747 12.7444C6.16248 12.8112 6.16419 12.8803 6.1525 12.9477C6.14081 13.0151 6.11596 13.0796 6.07935 13.1374C6.04275 13.1953 5.99511 13.2453 5.93917 13.2847C5.88322 13.3242 5.82006 13.3522 5.75328 13.3672C5.68651 13.3822 5.61743 13.3839 5.55 13.3722C2.639 12.8682 0 10.4142 0 6.7982C0 5.2612 0.699 4.0532 1.515 3.1352C2.1 2.4772 2.769 1.9422 3.307 1.5332H1.671C1.53839 1.5332 1.41121 1.48052 1.31745 1.38676C1.22368 1.29299 1.171 1.16581 1.171 1.0332C1.171 0.900595 1.22368 0.773418 1.31745 0.67965C1.41121 0.585882 1.53839 0.533203 1.671 0.533203H4.671C4.80361 0.533203 4.93079 0.585882 5.02455 0.67965C5.11832 0.773418 5.171 0.900595 5.171 1.0332V4.0332C5.171 4.16581 5.11832 4.29299 5.02455 4.38676C4.93079 4.48052 4.80361 4.5332 4.671 4.5332C4.53839 4.5332 4.41121 4.48052 4.31745 4.38676C4.22368 4.29299 4.171 4.16581 4.171 4.0332V2.1872L4.17 2.1892C3.598 2.6192 2.9 3.1462 2.295 3.8272C1.58 4.6312 1.042 5.6042 1.042 6.7982ZM12.15 7.2032C12.15 4.1912 9.99 2.1302 7.543 1.6702C7.4748 1.65863 7.40958 1.63359 7.35116 1.59655C7.29274 1.55951 7.24228 1.5112 7.20273 1.45445C7.16317 1.3977 7.13532 1.33364 7.12078 1.266C7.10625 1.19837 7.10533 1.12852 7.11808 1.06053C7.13083 0.992539 7.15699 0.927767 7.19503 0.869994C7.23308 0.812221 7.28225 0.762602 7.33968 0.724034C7.39711 0.685466 7.46164 0.658721 7.52951 0.645358C7.59738 0.631995 7.66724 0.632282 7.735 0.646203C10.609 1.1862 13.192 3.6262 13.192 7.2032C13.192 8.7402 12.493 9.9472 11.677 10.8662C11.092 11.5242 10.423 12.0592 9.885 12.4682H11.521C11.6536 12.4682 11.7808 12.5209 11.8746 12.6146C11.9683 12.7084 12.021 12.8356 12.021 12.9682C12.021 13.1008 11.9683 13.228 11.8746 13.3218C11.7808 13.4155 11.6536 13.4682 11.521 13.4682H8.521C8.38839 13.4682 8.26121 13.4155 8.16745 13.3218C8.07368 13.228 8.021 13.1008 8.021 12.9682V9.9682C8.021 9.8356 8.07368 9.70842 8.16745 9.61465C8.26121 9.52088 8.38839 9.4682 8.521 9.4682C8.65361 9.4682 8.78079 9.52088 8.87455 9.61465C8.96832 9.70842 9.021 9.8356 9.021 9.9682V11.8132H9.023C9.594 11.3812 10.293 10.8552 10.897 10.1732C11.612 9.3702 12.15 8.3982 12.15 7.2032Z" fill="#424242"/>
</svg>
