<svg width="24.000000" height="24.000000" viewBox="0 0 24 24" fill="none" xmlns="http://www.w3.org/2000/svg" xmlns:xlink="http://www.w3.org/1999/xlink">
	<desc>
			Created with Pixso.
	</desc>
	<defs/>
	<path id="Vector" d="M11.67 8.64C11.83 8.64 11.96 8.59 12.04 8.51C12.12 8.43 12.16 8.33 12.16 8.19C12.16 8.06 12.12 7.94 12.04 7.83C11.96 7.73 11.85 7.67 11.71 7.67C11.58 7.67 11.46 7.73 11.36 7.83C11.25 7.94 11.2 8.06 11.2 8.19C11.2 8.33 11.25 8.43 11.36 8.51C11.46 8.59 11.57 8.64 11.67 8.64ZM8.79 8.64C8.9 8.64 9.01 8.59 9.12 8.51C9.22 8.43 9.28 8.33 9.28 8.19C9.28 8.06 9.22 7.94 9.12 7.83C9.01 7.73 8.9 7.67 8.79 7.67C8.69 7.67 8.58 7.73 8.48 7.83C8.37 7.94 8.32 8.06 8.32 8.19C8.32 8.33 8.37 8.43 8.48 8.51C8.58 8.59 8.69 8.64 8.79 8.64ZM21.44 9.67C21.33 9.67 21.24 9.72 21.16 9.8C21.08 9.88 21.04 9.98 21.04 10.11C21.04 10.25 21.08 10.37 21.16 10.48C21.24 10.58 21.33 10.64 21.44 10.64C21.91 10.64 22.3 10.78 22.59 11.08C22.89 11.37 23.04 11.73 23.04 12.16L23.04 19.19C23.04 19.67 22.89 20.06 22.59 20.35C22.3 20.65 21.91 20.8 21.44 20.8L10.48 20.8C10.05 20.8 9.67 20.65 9.36 20.35C9.04 20.06 8.87 19.67 8.87 19.19L8.87 12.16C8.87 11.73 9.04 11.37 9.36 11.08C9.67 10.78 10.05 10.64 10.48 10.64L17.28 10.64C17.38 10.64 17.48 10.58 17.55 10.48C17.63 10.37 17.67 10.25 17.67 10.11C17.67 9.98 17.63 9.88 17.55 9.8C17.48 9.72 17.38 9.67 17.28 9.67L14.32 9.67C14.37 9.35 14.4 9.03 14.4 8.72L14.4 6.72L15.04 6.72C15.14 6.72 15.25 6.67 15.36 6.59C15.46 6.51 15.51 6.42 15.51 6.32L15.51 4.64C15.51 3.78 15.3 3.01 14.87 2.32C14.45 1.62 13.87 1.06 13.16 0.64C12.44 0.21 11.65 0 10.79 0C10.16 0 9.57 0.17 9.04 0.51C8.5 0.86 8.1 1.33 7.83 1.91C7.04 1.97 6.38 2.27 5.87 2.83C5.37 3.4 5.12 4.05 5.12 4.8L5.12 6.16C5.12 6.37 5.21 6.5 5.4 6.56C5.58 6.61 5.78 6.66 6 6.72L6 8.72C6 9.41 6.17 10.08 6.51 10.72C6.86 11.35 7.33 11.86 7.91 12.24L7.91 12.56L7.36 12.56C6.02 12.56 4.79 12.89 3.67 13.56C2.55 14.22 1.66 15.11 1 16.24C0.33 17.35 0 18.61 0 20L0 21.19C0 21.94 0.28 22.59 0.83 23.16C1.4 23.72 2.05 24 2.79 24L20.16 24C20.32 24 20.44 23.96 20.51 23.88C20.59 23.8 20.63 23.69 20.63 23.56C20.63 23.42 20.59 23.3 20.51 23.19C20.44 23.09 20.32 23.03 20.16 23.03L19.75 23.03C20.08 22.66 20.29 22.24 20.4 21.75L21.44 21.75C22.18 21.75 22.79 21.5 23.28 21C23.75 20.49 24 19.89 24 19.19L24 12.16C24 11.46 23.75 10.88 23.28 10.4C22.79 9.91 22.18 9.67 21.44 9.67ZM14.16 21.75L14.16 23.03L11.44 23.03L11.44 22.8C11.44 22.42 11.33 22.08 11.12 21.75L14.16 21.75ZM10.79 0.96C11.86 0.96 12.75 1.32 13.48 2.03C14.2 2.75 14.55 3.62 14.55 4.64L14.55 5.83L10.79 5.83C10.16 5.83 9.59 5.59 9.12 5.11C8.63 4.64 8.4 4.06 8.4 3.4C8.4 2.73 8.63 2.16 9.12 1.67C9.59 1.19 10.16 0.96 10.79 0.96ZM6 4.8C6 4.37 6.14 3.97 6.44 3.59C6.73 3.22 7.09 2.98 7.51 2.88L7.44 3.35C7.44 4.05 7.62 4.69 8 5.27C7.41 5.75 6.74 5.91 6 5.75L6 4.8ZM6.95 8.72L6.95 6.72C7.59 6.61 8.16 6.34 8.63 5.91C9.28 6.45 10 6.72 10.79 6.72L13.51 6.72L13.51 8.72C13.51 9.03 13.46 9.35 13.36 9.67L10.48 9.67C9.94 9.67 9.46 9.82 9.04 10.11C8.61 10.41 8.32 10.77 8.16 11.19C7.78 10.93 7.49 10.57 7.28 10.11C7.06 9.66 6.95 9.19 6.95 8.72ZM2.79 23.03C2.26 23.03 1.82 22.86 1.48 22.51C1.13 22.17 0.95 21.73 0.95 21.19L0.95 20C0.95 18.82 1.24 17.74 1.79 16.75C2.36 15.77 3.14 14.98 4.16 14.4C5.17 13.81 6.24 13.51 7.36 13.51L7.91 13.51L7.91 19.19C7.91 19.51 7.97 19.81 8.08 20.08L4.71 20.08C4.61 20.08 4.5 20.11 4.4 20.19C4.29 20.27 4.24 20.38 4.24 20.51C4.24 20.65 4.29 20.75 4.4 20.83C4.5 20.91 4.61 20.96 4.71 20.96L7.91 20.96L7.91 23.03L2.79 23.03ZM8.87 23.03L8.87 21.75L9.44 21.75C9.7 21.75 9.94 21.86 10.16 22.08C10.37 22.29 10.48 22.53 10.48 22.8L10.48 23.03L8.87 23.03ZM15.12 21.75L16.87 21.75L16.87 23.03L15.12 23.03L15.12 21.75ZM17.83 23.03L17.83 21.75L19.44 21.75C19.33 22.13 19.13 22.43 18.83 22.67C18.54 22.91 18.21 23.03 17.83 23.03ZM16 14C15.51 14 15.1 14.16 14.75 14.48C14.41 14.8 14.24 15.19 14.24 15.67C14.24 16.16 14.41 16.57 14.75 16.91C15.1 17.26 15.51 17.43 16 17.43C16.48 17.43 16.87 17.26 17.2 16.91C17.51 16.57 17.67 16.16 17.67 15.67C17.67 15.19 17.51 14.8 17.2 14.48C16.87 14.16 16.48 14 16 14ZM16 16.48C15.73 16.48 15.53 16.41 15.4 16.27C15.26 16.14 15.2 15.96 15.2 15.72C15.2 15.48 15.26 15.27 15.4 15.11C15.53 14.96 15.71 14.88 15.96 14.88C16.2 14.88 16.4 14.96 16.55 15.11C16.71 15.27 16.79 15.48 16.79 15.72C16.79 15.96 16.71 16.14 16.55 16.27C16.4 16.41 16.21 16.48 16 16.48ZM19.36 10.64C19.46 10.64 19.57 10.58 19.67 10.48C19.78 10.37 19.83 10.25 19.83 10.11C19.83 9.98 19.78 9.88 19.67 9.8C19.57 9.72 19.46 9.67 19.36 9.67C19.25 9.67 19.14 9.72 19.04 9.8C18.93 9.88 18.87 9.98 18.87 10.11C18.87 10.25 18.93 10.37 19.04 10.48C19.14 10.58 19.25 10.64 19.36 10.64Z" fill="#2E3095" fill-opacity="1.000000" fill-rule="nonzero"/>
</svg>
