<svg width="17" height="18" viewBox="0 0 17 18" fill="none" xmlns="http://www.w3.org/2000/svg">
<path d="M3.19141 18C2.64141 18 2.17074 17.8043 1.77941 17.413C1.38808 17.0217 1.19208 16.5507 1.19141 16V3C0.908076 3 0.670743 2.904 0.47941 2.712C0.288076 2.52 0.192076 2.28267 0.19141 2C0.190743 1.71733 0.286743 1.48 0.47941 1.288C0.672076 1.096 0.90941 1 1.19141 1H5.19141C5.19141 0.716667 5.28741 0.479333 5.47941 0.288C5.67141 0.0966668 5.90874 0.000666667 6.19141 0H10.1914C10.4747 0 10.7124 0.0960001 10.9044 0.288C11.0964 0.48 11.1921 0.717333 11.1914 1H15.1914C15.4747 1 15.7124 1.096 15.9044 1.288C16.0964 1.48 16.1921 1.71733 16.1914 2C16.1907 2.28267 16.0947 2.52033 15.9034 2.713C15.7121 2.90567 15.4747 3.00133 15.1914 3V16C15.1914 16.55 14.9957 17.021 14.6044 17.413C14.2131 17.805 13.7421 18.0007 13.1914 18H3.19141ZM13.1914 3H3.19141V16H13.1914V3ZM6.19141 14C6.47474 14 6.71241 13.904 6.90441 13.712C7.09641 13.52 7.19208 13.2827 7.19141 13V6C7.19141 5.71667 7.09541 5.47933 6.90341 5.288C6.71141 5.09667 6.47408 5.00067 6.19141 5C5.90874 4.99933 5.67141 5.09533 5.47941 5.288C5.28741 5.48067 5.19141 5.718 5.19141 6V13C5.19141 13.2833 5.28741 13.521 5.47941 13.713C5.67141 13.905 5.90874 14.0007 6.19141 14ZM10.1914 14C10.4747 14 10.7124 13.904 10.9044 13.712C11.0964 13.52 11.1921 13.2827 11.1914 13V6C11.1914 5.71667 11.0954 5.47933 10.9034 5.288C10.7114 5.09667 10.4741 5.00067 10.1914 5C9.90874 4.99933 9.67141 5.09533 9.47941 5.288C9.28741 5.48067 9.19141 5.718 9.19141 6V13C9.19141 13.2833 9.28741 13.521 9.47941 13.713C9.67141 13.905 9.90874 14.0007 10.1914 14Z" fill="#424242"/>
</svg>
