<svg width="24" height="25" viewBox="0 0 24 25" fill="none" xmlns="http://www.w3.org/2000/svg">
<path d="M23.7666 10.6088H22.8V10.559H12V15.359H18.7818C17.7924 18.1532 15.1338 20.159 12 20.159C8.0238 20.159 4.8 16.9352 4.8 12.959C4.8 8.98279 8.0238 5.75898 12 5.75898C13.8354 5.75898 15.5052 6.45138 16.7766 7.58238L20.1708 4.18818C18.0276 2.19078 15.1608 0.958984 12 0.958984C5.373 0.958984 0 6.33198 0 12.959C0 19.586 5.373 24.959 12 24.959C18.627 24.959 24 19.586 24 12.959C24 12.1544 23.9172 11.369 23.7666 10.6088Z" fill="#FFC107"/>
<path d="M1.38281 7.37358L5.32541 10.265C6.39221 7.62378 8.97581 5.75898 11.9992 5.75898C13.8346 5.75898 15.5044 6.45138 16.7758 7.58238L20.17 4.18818C18.0268 2.19078 15.16 0.958984 11.9992 0.958984C7.39001 0.958984 3.39281 3.56118 1.38281 7.37358Z" fill="#FF3D00"/>
<path d="M11.9994 24.9582C15.099 24.9582 17.9154 23.772 20.0448 21.843L16.3308 18.7002C15.126 19.6128 13.6284 20.1582 11.9994 20.1582C8.87821 20.1582 6.22801 18.168 5.22961 15.3906L1.31641 18.4056C3.30241 22.2918 7.33561 24.9582 11.9994 24.9582Z" fill="#4CAF50"/>
<path d="M23.7666 10.6084H22.8V10.5586H12V15.3586H18.7818C18.3066 16.7008 17.4432 17.8582 16.3296 18.7012C16.3302 18.7006 16.3308 18.7006 16.3314 18.7L20.0454 21.8428C19.7826 22.0816 24 18.9586 24 12.9586C24 12.154 23.9172 11.3686 23.7666 10.6084Z" fill="#1976D2"/>
</svg>
