<svg width="24.000000" height="26.187500" viewBox="0 0 24 26.1875" fill="none" xmlns="http://www.w3.org/2000/svg" xmlns:xlink="http://www.w3.org/1999/xlink">
	<desc>
			Created with Pixso.
	</desc>
	<defs>
		<clipPath id="clip17_1101">
			<rect id="Overview" rx="0.000000" width="23.000000" height="25.186666" transform="translate(0.500000 0.500000)" fill="white" fill-opacity="0"/>
		</clipPath>
	</defs>
	<rect id="Overview" rx="0.000000" width="23.000000" height="25.186666" transform="translate(0.500000 0.500000)" fill="#CCCCCC" fill-opacity="0"/>
	<g clip-path="url(#clip17_1101)">
		<path id="Vector" d="M12 20.45C11.58 20.45 11.25 20.08 11.25 19.64L11.25 16.36C11.25 15.91 11.58 15.54 12 15.54C12.41 15.54 12.75 15.91 12.75 16.36L12.75 19.64C12.75 20.08 12.41 20.45 12 20.45Z" fill="#2E3095" fill-opacity="1.000000" fill-rule="nonzero"/>
		<path id="Vector" d="M17.59 24.61L6.4 24.61C4.58 24.61 2.91 23.08 2.62 21.13L1.29 12.43C1.07 11.08 1.67 9.35 2.66 8.48L9.59 2.43C10.94 1.25 13.04 1.26 14.4 2.44L21.33 8.48C22.3 9.35 22.91 11.08 22.71 12.43L21.37 21.12C21.08 23.05 19.37 24.61 17.59 24.61ZM11.99 3.19C11.46 3.19 10.92 3.37 10.54 3.7L3.61 9.77C3.04 10.26 2.65 11.4 2.76 12.17L4.09 20.86C4.28 22 5.33 22.97 6.4 22.97L17.59 22.97C18.66 22.97 19.71 22 19.9 20.85L21.22 12.16C21.33 11.4 20.94 10.24 20.38 9.76L13.46 3.72C13.05 3.37 12.51 3.19 11.99 3.19Z" fill="#2E3095" fill-opacity="1.000000" fill-rule="nonzero"/>
	</g>
</svg>
