<svg width="24" height="25" viewBox="0 0 24 25" fill="none" xmlns="http://www.w3.org/2000/svg">
<path d="M20.0449 13.7116C20.0568 12.7929 20.355 11.8918 20.9115 11.0926C21.4679 10.2935 22.2645 9.62243 23.2264 9.14244C22.6152 8.43356 21.8103 7.84979 20.8752 7.43702C19.9401 7.02424 18.9001 6.79371 17.8371 6.76355C15.5421 6.57376 13.3586 7.86392 12.1932 7.86392C11.0278 7.86392 9.23327 6.7915 7.33149 6.81595C6.08161 6.8442 4.86227 7.13678 3.79327 7.66492C2.72427 8.19306 1.84241 8.9386 1.23433 9.82827C-1.36525 13.5008 0.56799 18.9421 3.1018 21.9206C4.34011 23.3785 5.81864 25.0168 7.75331 24.9574C9.61935 24.8969 10.3272 23.9735 12.5821 23.9735C14.8371 23.9735 15.4734 24.9574 17.4438 24.9271C19.4457 24.8969 20.7241 23.4414 21.9538 21.9789C22.8337 20.9255 23.5229 19.7746 24 18.5613C22.8313 18.1557 21.8339 17.4803 21.1311 16.6185C20.4282 15.7567 20.0506 14.7461 20.0449 13.7116ZM16.3271 4.79221C17.4397 3.72951 17.9908 2.35145 17.8599 0.958984C16.181 1.09132 14.6278 1.74163 13.5187 2.77662C12.9654 3.27848 12.5416 3.86583 12.2726 4.50374C12.0036 5.14166 11.8949 5.8171 11.953 6.48992C12.7945 6.50093 13.6278 6.35344 14.3878 6.05895C15.1478 5.76445 15.8139 5.33093 16.3342 4.79221H16.3271Z" fill="#B3B3B3"/>
</svg>
