<svg width="24" height="23" viewBox="0 0 24 23" fill="none" xmlns="http://www.w3.org/2000/svg">
<path d="M23.52 18.053H23.04V6.29305C23.04 5.59971 22.8133 5.02638 22.36 4.57305C21.9067 4.11971 21.36 3.89305 20.72 3.89305H19.28V2.77304C19.28 2.23971 19.1067 1.79971 18.76 1.45304C18.4133 1.10638 18 0.933044 17.52 0.933044H11.6C11.0667 0.933044 10.6267 1.10638 10.28 1.45304C9.93333 1.79971 9.76 2.23971 9.76 2.77304V3.89305H3.28C2.64 3.89305 2.09333 4.11971 1.64 4.57305C1.18667 5.02638 0.96 5.59971 0.96 6.29305V18.053H0.48C0.32 18.053 0.2 18.1064 0.12 18.213C0.04 18.3197 0 18.4264 0 18.533C0 19.5997 0.373333 20.5064 1.12 21.253C1.86667 21.9997 2.77333 22.373 3.84 22.373H9.92C10.0267 22.373 10.12 22.333 10.2 22.253C10.28 22.173 10.32 22.0664 10.32 21.933C10.32 21.7997 10.28 21.6797 10.2 21.573C10.12 21.4664 10.0267 21.413 9.92 21.413H3.84C3.14667 21.413 2.52 21.1864 1.96 20.733C1.4 20.2797 1.06667 19.7064 0.96 19.013H23.04C22.9333 19.7064 22.6 20.2797 22.04 20.733C21.48 21.1864 20.8533 21.413 20.16 21.413H14.08C13.9733 21.413 13.88 21.4664 13.8 21.573C13.72 21.6797 13.68 21.7997 13.68 21.933C13.68 22.0664 13.72 22.173 13.8 22.253C13.88 22.333 13.9733 22.373 14.08 22.373H20.16C21.2267 22.373 22.1333 21.9997 22.88 21.253C23.6267 20.5064 24 19.5997 24 18.533C24 18.4264 23.96 18.3197 23.88 18.213C23.8 18.1064 23.68 18.053 23.52 18.053ZM10.72 2.77304C10.72 2.50638 10.8 2.29305 10.96 2.13305C11.12 1.97305 11.3333 1.89305 11.6 1.89305H17.52C17.7333 1.89305 17.9333 1.97305 18.12 2.13305C18.3067 2.29305 18.4 2.50638 18.4 2.77304V7.09305C18.4 7.30638 18.3067 7.50638 18.12 7.69305C17.9333 7.87971 17.7333 7.97305 17.52 7.97305H13.12C12.96 7.97305 12.8533 7.99971 12.8 8.05305L12 8.77305V8.37305C12 8.26638 11.96 8.17305 11.88 8.09305C11.8 8.01305 11.6667 7.97305 11.48 7.97305C11.2933 7.97305 11.12 7.87971 10.96 7.69305C10.8 7.50638 10.72 7.30638 10.72 7.09305V2.77304ZM1.84 6.29305C1.84 5.86638 1.98667 5.51971 2.28 5.25305C2.57333 4.98638 2.90667 4.85305 3.28 4.85305H9.76V5.81305H3.28C3.17333 5.81305 3.06667 5.85305 2.96 5.93305C2.85333 6.01305 2.8 6.13305 2.8 6.29305V18.053H1.84V6.29305ZM5.68 18.053V17.813C5.68 17.1197 5.92 16.5197 6.4 16.013C6.88 15.5064 7.46667 15.253 8.16 15.253H8.4V16.133C8.4 16.293 8.44 16.413 8.52 16.493C8.6 16.573 8.70667 16.613 8.84 16.613C8.97333 16.613 9.08 16.573 9.16 16.493C9.24 16.413 9.28 16.293 9.28 16.133V15.253H9.52C10.2133 15.253 10.8 15.5064 11.28 16.013C11.76 16.5197 12 17.1197 12 17.813V18.053H5.68ZM10.08 13.093C10.08 13.413 9.96 13.693 9.72 13.933C9.48 14.173 9.18667 14.293 8.84 14.293C8.49333 14.293 8.2 14.173 7.96 13.933C7.72 13.693 7.6 13.413 7.6 13.093V12.773C7.6 12.453 7.72 12.173 7.96 11.933C8.2 11.693 8.49333 11.573 8.84 11.573C9.18667 11.573 9.48 11.693 9.72 11.933C9.96 12.173 10.08 12.453 10.08 12.773V13.093ZM12.96 18.053V17.813C12.96 17.013 12.7333 16.3064 12.28 15.693C11.8267 15.0797 11.2267 14.6664 10.48 14.453C10.8 14.0797 10.96 13.6264 10.96 13.093V12.773C10.96 12.1864 10.76 11.6797 10.36 11.253C9.96 10.8264 9.45333 10.613 8.84 10.613C8.22667 10.613 7.72 10.8264 7.32 11.253C6.92 11.6797 6.72 12.1864 6.72 12.773V13.093C6.72 13.6264 6.88 14.0797 7.2 14.453C6.45333 14.6664 5.85333 15.0797 5.4 15.693C4.94667 16.3064 4.72 17.013 4.72 17.813V18.053H3.76V6.69305H9.76V7.09305C9.76 7.46638 9.88 7.82638 10.12 8.17305C10.36 8.51971 10.6933 8.74638 11.12 8.85305V9.97305C11.12 10.133 11.2 10.2664 11.36 10.373H11.6C11.7067 10.373 11.8133 10.3464 11.92 10.293L13.28 8.85305H17.52C18 8.85305 18.4133 8.67971 18.76 8.33305C19.1067 7.98638 19.28 7.57305 19.28 7.09305V6.69305H20.24V18.053H12.96ZM21.2 18.053V6.29305C21.2 6.13305 21.1467 6.01305 21.04 5.93305C20.9333 5.85305 20.8267 5.81305 20.72 5.81305H19.28V4.85305H20.72C21.0933 4.85305 21.4267 4.98638 21.72 5.25305C22.0133 5.51971 22.16 5.86638 22.16 6.29305V18.053H21.2ZM13.04 19.733H10.96C10.8533 19.733 10.7467 19.7864 10.64 19.893C10.5333 19.9997 10.48 20.1197 10.48 20.253C10.48 20.3864 10.5333 20.493 10.64 20.573C10.7467 20.653 10.8533 20.693 10.96 20.693H13.04C13.2 20.693 13.32 20.653 13.4 20.573C13.48 20.493 13.52 20.3864 13.52 20.253C13.52 20.1197 13.48 19.9997 13.4 19.893C13.32 19.7864 13.2 19.733 13.04 19.733ZM13.44 6.69305C13.6 6.79971 13.76 6.85305 13.92 6.85305C14.08 6.85305 14.2133 6.79971 14.32 6.69305L16.08 5.65305C16.4 5.49305 16.56 5.23971 16.56 4.89305C16.56 4.54638 16.4 4.29305 16.08 4.13305L14.32 3.09305C14.0533 2.93305 13.76 2.93305 13.44 3.09305C13.12 3.25305 12.96 3.51971 12.96 3.89305V5.89305C12.96 6.26638 13.12 6.53305 13.44 6.69305ZM13.92 3.97305L15.6 4.93305L13.92 5.81305V3.97305ZM12 21.413C11.8933 21.413 11.7867 21.4664 11.68 21.573C11.5733 21.6797 11.52 21.7997 11.52 21.933C11.52 22.0664 11.5733 22.173 11.68 22.253C11.7867 22.333 11.8933 22.373 12 22.373C12.1067 22.373 12.2133 22.333 12.32 22.253C12.4267 22.173 12.48 22.0664 12.48 21.933C12.48 21.7997 12.4267 21.6797 12.32 21.573C12.2133 21.4664 12.1067 21.413 12 21.413Z" fill="#2E3095"/>
</svg>
