<svg width="27.000000" height="29.000000" viewBox="0 0 27 29" fill="none" xmlns="http://www.w3.org/2000/svg" xmlns:xlink="http://www.w3.org/1999/xlink">
	<desc>
			Created with Pixso.
	</desc>
	<defs>
		<clipPath id="clip43_1886">
			<rect id="Notification" rx="0.000000" width="26.000000" height="28.000000" transform="translate(0.500000 0.500000)" fill="white" fill-opacity="0"/>
		</clipPath>
	</defs>
	<g clip-path="url(#clip43_1886)">
		<path id="Vector" d="M6.76 10.76L6.76 14.25C6.76 14.99 6.47 16.11 6.12 16.74L4.83 19.05C4.03 20.48 4.58 22.06 6.05 22.59C10.89 24.33 16.12 24.33 20.98 22.59C22.33 22.11 22.93 20.38 22.19 19.05L20.9 16.74C20.56 16.11 20.26 14.99 20.26 14.25L20.26 10.76C20.26 6.77 17.23 3.51 13.51 3.51C9.79 3.51 6.76 6.76 6.76 10.76Z" stroke="#2C4396" stroke-opacity="1.000000" stroke-width="1.500000"/>
		<path id="Vector" d="M11.44 3.86C11.76 2.97 12.57 2.34 13.52 2.34C14.46 2.34 15.27 2.97 15.6 3.86C14.24 3.44 12.8 3.44 11.44 3.86Z" stroke="#2C4396" stroke-opacity="1.000000" stroke-width="1.500000" stroke-linejoin="round"/>
		<path id="Vector" d="M16.89 23.03C16.89 25.02 15.37 26.65 13.52 26.65C12.6 26.65 11.74 26.24 11.13 25.59C10.5 24.91 10.15 23.99 10.14 23.03" stroke="#2C4396" stroke-opacity="1.000000" stroke-width="1.500000"/>
	</g>
</svg>
