<svg width="18.746094" height="22.144531" viewBox="0 0 18.7461 22.1445" fill="none" xmlns="http://www.w3.org/2000/svg" xmlns:xlink="http://www.w3.org/1999/xlink">
	<desc>
			Created with Pixso.
	</desc>
	<defs/>
	<path id="Vector" d="M5.43 13.01C5.26 13.95 4.58 18.32 4.38 19.56C4.37 19.64 4.33 19.68 4.23 19.68L0.59 19.68C0.22 19.68 -0.05 19.36 0 19L2.86 0.84C2.94 0.37 3.36 0.01 3.84 0.01C11.28 0.01 11.9 -0.17 13.8 0.57C16.73 1.71 17 4.45 15.95 7.42C14.9 10.48 12.41 11.79 9.11 11.83C6.99 11.87 5.71 11.49 5.43 13.01ZM17.43 5.99C17.34 5.92 17.31 5.9 17.28 6.05C17.18 6.61 17.03 7.15 16.85 7.69C14.9 13.25 9.5 12.76 6.87 12.76C6.57 12.76 6.37 12.92 6.33 13.22C5.23 20.08 5.01 21.51 5.01 21.51C4.96 21.86 5.18 22.14 5.53 22.14L8.63 22.14C9.05 22.14 9.4 21.83 9.48 21.41C9.51 21.15 9.42 21.71 10.18 16.95C10.41 15.88 10.88 15.99 11.61 15.99C15.08 15.99 17.78 14.58 18.59 10.51C18.91 8.81 18.81 7.02 17.43 5.99Z" fill="#2E3095" fill-opacity="1.000000" fill-rule="nonzero"/>
</svg>
