<svg width="19" height="23" viewBox="0 0 19 23" fill="none" xmlns="http://www.w3.org/2000/svg">
<path d="M5.43542 13.3906C5.26452 14.3281 4.58581 18.6983 4.38562 19.9336C4.37097 20.0215 4.33679 20.0557 4.23913 20.0557H0.596556C0.225462 20.0557 -0.0430923 19.7334 0.00573583 19.377L2.86706 1.21778C2.94031 0.749034 3.36023 0.392589 3.84363 0.392589C11.2801 0.392589 11.9051 0.211925 13.8046 0.949229C16.7391 2.08692 17.0077 4.83107 15.953 7.79981C14.9032 10.8565 12.413 12.1699 9.11218 12.209C6.99304 12.2432 5.71863 11.8672 5.43542 13.3906ZM17.4325 6.36427C17.3446 6.30079 17.3104 6.27638 17.286 6.42774C17.1884 6.98439 17.037 7.52638 16.8563 8.06837C14.9081 13.625 9.50769 13.1416 6.87097 13.1416C6.57312 13.1416 6.37781 13.3027 6.33874 13.6006C5.23523 20.4561 5.0155 21.8867 5.0155 21.8867C4.96667 22.2334 5.1864 22.5166 5.53308 22.5166H8.63366C9.05359 22.5166 9.40027 22.209 9.48327 21.7891C9.51745 21.5254 9.42956 22.0869 10.1864 17.3311C10.411 16.2568 10.8846 16.3692 11.6171 16.3692C15.0839 16.3692 17.7889 14.9629 18.5946 10.8858C18.912 9.18653 18.8192 7.39942 17.4325 6.36427Z" fill="#2E3095"/>
</svg>
