<svg width="24.000000" height="21.439453" viewBox="0 0 24 21.4395" fill="none" xmlns="http://www.w3.org/2000/svg" xmlns:xlink="http://www.w3.org/1999/xlink">
	<desc>
			Created with Pixso.
	</desc>
	<defs/>
	<path id="Vector" d="M23.51 17.11L23.04 17.11L23.04 5.35C23.04 4.66 22.81 4.09 22.36 3.63C21.9 3.18 21.36 2.95 20.71 2.95L19.28 2.95L19.28 1.83C19.28 1.3 19.1 0.86 18.75 0.51C18.41 0.17 18 0 17.51 0L11.59 0C11.06 0 10.62 0.17 10.28 0.51C9.93 0.86 9.75 1.3 9.75 1.83L9.75 2.95L3.28 2.95C2.63 2.95 2.09 3.18 1.63 3.63C1.18 4.09 0.95 4.66 0.95 5.35L0.95 17.11L0.48 17.11C0.32 17.11 0.2 17.17 0.12 17.27C0.04 17.38 0 17.49 0 17.59C0 18.66 0.37 19.57 1.12 20.32C1.86 21.06 2.77 21.43 3.83 21.43L9.91 21.43C10.02 21.43 10.12 21.4 10.2 21.32C10.28 21.24 10.32 21.13 10.32 21C10.32 20.86 10.28 20.74 10.2 20.63C10.12 20.53 10.02 20.47 9.91 20.47L3.83 20.47C3.14 20.47 2.51 20.25 1.95 19.79C1.4 19.34 1.06 18.77 0.95 18.08L23.04 18.08C22.93 18.77 22.59 19.34 22.04 19.79C21.48 20.25 20.85 20.47 20.16 20.47L14.08 20.47C13.97 20.47 13.87 20.53 13.79 20.63C13.71 20.74 13.67 20.86 13.67 21C13.67 21.13 13.71 21.24 13.79 21.32C13.87 21.4 13.97 21.43 14.08 21.43L20.16 21.43C21.22 21.43 22.13 21.06 22.87 20.32C23.62 19.57 24 18.66 24 17.59C24 17.49 23.96 17.38 23.87 17.27C23.79 17.17 23.67 17.11 23.51 17.11ZM10.71 1.83C10.71 1.57 10.79 1.35 10.96 1.19C11.12 1.03 11.33 0.95 11.59 0.95L17.51 0.95C17.73 0.95 17.93 1.03 18.12 1.19C18.3 1.35 18.4 1.57 18.4 1.83L18.4 6.16C18.4 6.37 18.3 6.57 18.12 6.75C17.93 6.94 17.73 7.03 17.51 7.03L13.12 7.03C12.96 7.03 12.85 7.06 12.79 7.11L12 7.83L12 7.43C12 7.33 11.96 7.24 11.87 7.16C11.79 7.08 11.66 7.03 11.48 7.03C11.29 7.03 11.12 6.94 10.96 6.75C10.79 6.57 10.71 6.37 10.71 6.16L10.71 1.83ZM1.83 5.35C1.83 4.93 1.98 4.58 2.28 4.32C2.57 4.05 2.9 3.91 3.28 3.91L9.75 3.91L9.75 4.87L3.28 4.87C3.17 4.87 3.06 4.91 2.95 5C2.85 5.08 2.79 5.19 2.79 5.35L2.79 17.11L1.83 17.11L1.83 5.35ZM5.67 17.11L5.67 16.87C5.67 16.18 5.91 15.58 6.4 15.08C6.87 14.57 7.46 14.32 8.16 14.32L8.4 14.32L8.4 15.19C8.4 15.35 8.44 15.47 8.51 15.55C8.59 15.63 8.7 15.67 8.83 15.67C8.97 15.67 9.08 15.63 9.16 15.55C9.24 15.47 9.28 15.35 9.28 15.19L9.28 14.32L9.51 14.32C10.21 14.32 10.79 14.57 11.28 15.08C11.75 15.58 12 16.18 12 16.87L12 17.11L5.67 17.11ZM10.08 12.16C10.08 12.47 9.95 12.75 9.71 13C9.48 13.24 9.18 13.35 8.83 13.35C8.49 13.35 8.2 13.24 7.95 13C7.71 12.75 7.59 12.47 7.59 12.16L7.59 11.83C7.59 11.51 7.71 11.24 7.95 11C8.2 10.75 8.49 10.63 8.83 10.63C9.18 10.63 9.48 10.75 9.71 11C9.95 11.24 10.08 11.51 10.08 11.83L10.08 12.16ZM12.96 17.11L12.96 16.87C12.96 16.08 12.73 15.37 12.28 14.75C11.82 14.14 11.22 13.73 10.48 13.51C10.79 13.14 10.96 12.69 10.96 12.16L10.96 11.83C10.96 11.25 10.75 10.74 10.36 10.32C9.95 9.89 9.45 9.67 8.83 9.67C8.22 9.67 7.71 9.89 7.32 10.32C6.91 10.74 6.71 11.25 6.71 11.83L6.71 12.16C6.71 12.69 6.87 13.14 7.2 13.51C6.45 13.73 5.85 14.14 5.4 14.75C4.94 15.37 4.71 16.08 4.71 16.87L4.71 17.11L3.75 17.11L3.75 5.75L9.75 5.75L9.75 6.16C9.75 6.53 9.87 6.89 10.12 7.24C10.36 7.58 10.69 7.81 11.12 7.91L11.12 9.03C11.12 9.19 11.2 9.33 11.36 9.43L11.59 9.43C11.7 9.43 11.81 9.41 11.91 9.35L13.28 7.91L17.51 7.91C18 7.91 18.41 7.74 18.75 7.4C19.1 7.05 19.28 6.63 19.28 6.16L19.28 5.75L20.24 5.75L20.24 17.11L12.96 17.11ZM21.2 17.11L21.2 5.35C21.2 5.19 21.14 5.08 21.04 5C20.93 4.91 20.82 4.87 20.71 4.87L19.28 4.87L19.28 3.91L20.71 3.91C21.09 3.91 21.42 4.05 21.71 4.32C22.01 4.58 22.16 4.93 22.16 5.35L22.16 17.11L21.2 17.11ZM13.04 18.79L10.96 18.79C10.85 18.79 10.74 18.85 10.63 18.95C10.53 19.06 10.48 19.18 10.48 19.32C10.48 19.45 10.53 19.55 10.63 19.63C10.74 19.71 10.85 19.75 10.96 19.75L13.04 19.75C13.2 19.75 13.32 19.71 13.4 19.63C13.48 19.55 13.51 19.45 13.51 19.32C13.51 19.18 13.48 19.06 13.4 18.95C13.32 18.85 13.2 18.79 13.04 18.79ZM13.44 5.75C13.59 5.86 13.75 5.91 13.91 5.91C14.08 5.91 14.21 5.86 14.32 5.75L16.08 4.71C16.4 4.55 16.55 4.3 16.55 3.95C16.55 3.61 16.4 3.35 16.08 3.19L14.32 2.16C14.05 2 13.75 2 13.44 2.16C13.12 2.32 12.96 2.58 12.96 2.95L12.96 4.95C12.96 5.33 13.12 5.59 13.44 5.75ZM13.91 3.03L15.59 4L13.91 4.87L13.91 3.03ZM12 20.47C11.89 20.47 11.78 20.53 11.67 20.63C11.57 20.74 11.51 20.86 11.51 21C11.51 21.13 11.57 21.24 11.67 21.32C11.78 21.4 11.89 21.43 12 21.43C12.1 21.43 12.21 21.4 12.32 21.32C12.42 21.24 12.48 21.13 12.48 21C12.48 20.86 12.42 20.74 12.32 20.63C12.21 20.53 12.1 20.47 12 20.47Z" fill="#2E3095" fill-opacity="1.000000" fill-rule="nonzero"/>
</svg>
