<svg width="23.059570" height="27.333740" viewBox="0 0 23.0596 27.3337" fill="none" xmlns="http://www.w3.org/2000/svg" xmlns:xlink="http://www.w3.org/1999/xlink">
	<desc>
			Created with Pixso.
	</desc>
	<defs/>
	<path id="Polygon 2" d="M22.57 12.81L1.51 0.14C0.84 -0.26 0 0.22 0 1L0 26.33C0 27.11 0.84 27.59 1.51 27.18L22.57 14.52C23.22 14.13 23.22 13.19 22.57 12.81Z" fill="#00732E" fill-opacity="1.000000" fill-rule="evenodd"/>
	<path id="Polygon 2" d="M1.51 0.14C0.84 -0.26 0 0.22 0 1L0 26.33C0 27.11 0.84 27.59 1.51 27.18L22.57 14.52C23.22 14.13 23.22 13.19 22.57 12.81L1.51 0.14ZM1 1L1 26.33L22.05 13.66L1 1Z" fill="#000000" fill-opacity="1.000000" fill-rule="evenodd"/>
</svg>
