<svg width="24" height="25" viewBox="0 0 24 25" fill="none" xmlns="http://www.w3.org/2000/svg">
<g clip-path="url(#clip0_3121_3958)">
<path d="M11.68 9.20055C11.84 9.20055 11.96 9.16055 12.04 9.08055C12.12 9.00055 12.16 8.89388 12.16 8.76055C12.16 8.62721 12.12 8.50721 12.04 8.40055C11.96 8.29388 11.8533 8.24055 11.72 8.24055C11.5867 8.24055 11.4667 8.29388 11.36 8.40055C11.2533 8.50721 11.2 8.62721 11.2 8.76055C11.2 8.89388 11.2533 9.00055 11.36 9.08055C11.4667 9.16055 11.5733 9.20055 11.68 9.20055ZM8.8 9.20055C8.90667 9.20055 9.01333 9.16055 9.12 9.08055C9.22667 9.00055 9.28 8.89388 9.28 8.76055C9.28 8.62721 9.22667 8.50721 9.12 8.40055C9.01333 8.29388 8.90667 8.24055 8.8 8.24055C8.69333 8.24055 8.58667 8.29388 8.48 8.40055C8.37333 8.50721 8.32 8.62721 8.32 8.76055C8.32 8.89388 8.37333 9.00055 8.48 9.08055C8.58667 9.16055 8.69333 9.20055 8.8 9.20055ZM21.44 10.2405C21.3333 10.2405 21.24 10.2805 21.16 10.3605C21.08 10.4405 21.04 10.5472 21.04 10.6805C21.04 10.8139 21.08 10.9339 21.16 11.0405C21.24 11.1472 21.3333 11.2005 21.44 11.2005C21.92 11.2005 22.3067 11.3472 22.6 11.6405C22.8933 11.9339 23.04 12.2939 23.04 12.7205V19.7605C23.04 20.2405 22.8933 20.6272 22.6 20.9205C22.3067 21.2139 21.92 21.3605 21.44 21.3605H10.48C10.0533 21.3605 9.68 21.2139 9.36 20.9205C9.04 20.6272 8.88 20.2405 8.88 19.7605V12.7205C8.88 12.2939 9.04 11.9339 9.36 11.6405C9.68 11.3472 10.0533 11.2005 10.48 11.2005H17.28C17.3867 11.2005 17.48 11.1472 17.56 11.0405C17.64 10.9339 17.68 10.8139 17.68 10.6805C17.68 10.5472 17.64 10.4405 17.56 10.3605C17.48 10.2805 17.3867 10.2405 17.28 10.2405H14.32C14.3733 9.92055 14.4 9.60055 14.4 9.28055V7.28055H15.04C15.1467 7.28055 15.2533 7.24055 15.36 7.16055C15.4667 7.08055 15.52 6.98721 15.52 6.88055V5.20055C15.52 4.34721 15.3067 3.57388 14.88 2.88054C14.4533 2.18721 13.88 1.62721 13.16 1.20054C12.44 0.773878 11.6533 0.560545 10.8 0.560545C10.16 0.560545 9.57333 0.733879 9.04 1.08055C8.50667 1.42721 8.10667 1.89388 7.84 2.48055C7.04 2.53388 6.38667 2.84055 5.88 3.40055C5.37333 3.96054 5.12 4.61388 5.12 5.36055V6.72054C5.12 6.93388 5.21333 7.06721 5.4 7.12055C5.58667 7.17388 5.78667 7.22721 6 7.28055V9.28055C6 9.97388 6.17333 10.6405 6.52 11.2805C6.86667 11.9205 7.33333 12.4272 7.92 12.8005V13.1205H7.36C6.02667 13.1205 4.8 13.4539 3.68 14.1205C2.56 14.7872 1.66667 15.6805 1 16.8005C0.333333 17.9205 0 19.1739 0 20.5605V21.7605C0 22.5072 0.28 23.1605 0.84 23.7205C1.4 24.2805 2.05333 24.5605 2.8 24.5605H20.16C20.32 24.5605 20.44 24.5205 20.52 24.4405C20.6 24.3605 20.64 24.2539 20.64 24.1205C20.64 23.9872 20.6 23.8672 20.52 23.7605C20.44 23.6539 20.32 23.6005 20.16 23.6005H19.76C20.08 23.2272 20.2933 22.8005 20.4 22.3205H21.44C22.1867 22.3205 22.8 22.0672 23.28 21.5605C23.76 21.0539 24 20.4539 24 19.7605V12.7205C24 12.0272 23.76 11.4405 23.28 10.9605C22.8 10.4805 22.1867 10.2405 21.44 10.2405ZM14.16 22.3205V23.6005H11.44V23.3605C11.44 22.9872 11.3333 22.6405 11.12 22.3205H14.16ZM10.8 1.52055C11.8667 1.52055 12.76 1.88054 13.48 2.60055C14.2 3.32055 14.56 4.18721 14.56 5.20055V6.40055H10.8C10.16 6.40055 9.6 6.16055 9.12 5.68055C8.64 5.20055 8.4 4.62721 8.4 3.96054C8.4 3.29388 8.64 2.72054 9.12 2.24055C9.6 1.76055 10.16 1.52055 10.8 1.52055ZM6 5.36055C6 4.93388 6.14667 4.53388 6.44 4.16055C6.73333 3.78721 7.09333 3.54721 7.52 3.44055L7.44 3.92055C7.44 4.61388 7.62667 5.25388 8 5.84055C7.41333 6.32055 6.74667 6.48055 6 6.32055V5.36055ZM6.96 9.28055V7.28055C7.6 7.17388 8.16 6.90721 8.64 6.48055C9.28 7.01388 10 7.28055 10.8 7.28055H13.52V9.28055C13.52 9.60055 13.4667 9.92055 13.36 10.2405H10.48C9.94667 10.2405 9.46667 10.3872 9.04 10.6805C8.61333 10.9739 8.32 11.3339 8.16 11.7605C7.78667 11.4939 7.49333 11.1339 7.28 10.6805C7.06667 10.2272 6.96 9.76055 6.96 9.28055ZM2.8 23.6005C2.26667 23.6005 1.82667 23.4272 1.48 23.0805C1.13333 22.7339 0.96 22.2939 0.96 21.7605V20.5605C0.96 19.3872 1.24 18.3072 1.8 17.3205C2.36 16.3339 3.14667 15.5472 4.16 14.9605C5.17333 14.3739 6.24 14.0805 7.36 14.0805H7.92V19.7605C7.92 20.0805 7.97333 20.3739 8.08 20.6405H4.72C4.61333 20.6405 4.50667 20.6805 4.4 20.7605C4.29333 20.8405 4.24 20.9472 4.24 21.0805C4.24 21.2139 4.29333 21.3205 4.4 21.4005C4.50667 21.4805 4.61333 21.5205 4.72 21.5205H7.92V23.6005H2.8ZM8.88 23.6005V22.3205H9.44C9.70667 22.3205 9.94667 22.4272 10.16 22.6405C10.3733 22.8539 10.48 23.0939 10.48 23.3605V23.6005H8.88ZM15.12 22.3205H16.88V23.6005H15.12V22.3205ZM17.84 23.6005V22.3205H19.44C19.3333 22.6939 19.1333 23.0005 18.84 23.2405C18.5467 23.4805 18.2133 23.6005 17.84 23.6005ZM16 14.5605C15.52 14.5605 15.1067 14.7205 14.76 15.0405C14.4133 15.3605 14.24 15.7605 14.24 16.2405C14.24 16.7205 14.4133 17.1339 14.76 17.4805C15.1067 17.8272 15.52 18.0005 16 18.0005C16.48 18.0005 16.88 17.8272 17.2 17.4805C17.52 17.1339 17.68 16.7205 17.68 16.2405C17.68 15.7605 17.52 15.3605 17.2 15.0405C16.88 14.7205 16.48 14.5605 16 14.5605ZM16 17.0405C15.7333 17.0405 15.5333 16.9739 15.4 16.8405C15.2667 16.7072 15.2 16.5205 15.2 16.2805C15.2 16.0405 15.2667 15.8405 15.4 15.6805C15.5333 15.5205 15.72 15.4405 15.96 15.4405C16.2 15.4405 16.4 15.5205 16.56 15.6805C16.72 15.8405 16.8 16.0405 16.8 16.2805C16.8 16.5205 16.72 16.7072 16.56 16.8405C16.4 16.9739 16.2133 17.0405 16 17.0405ZM19.36 11.2005C19.4667 11.2005 19.5733 11.1472 19.68 11.0405C19.7867 10.9339 19.84 10.8139 19.84 10.6805C19.84 10.5472 19.7867 10.4405 19.68 10.3605C19.5733 10.2805 19.4667 10.2405 19.36 10.2405C19.2533 10.2405 19.1467 10.2805 19.04 10.3605C18.9333 10.4405 18.88 10.5472 18.88 10.6805C18.88 10.8139 18.9333 10.9339 19.04 11.0405C19.1467 11.1472 19.2533 11.2005 19.36 11.2005Z" fill="#2E3095"/>
</g>
<defs>
<clipPath id="clip0_3121_3958">
<rect width="24" height="24" fill="white" transform="matrix(1 0 0 -1 0 24.5605)"/>
</clipPath>
</defs>
</svg>
