<svg width="24.000000" height="24.000000" viewBox="0 0 24 24" fill="none" xmlns="http://www.w3.org/2000/svg" xmlns:xlink="http://www.w3.org/1999/xlink">
	<desc>
			Created with Pixso.
	</desc>
	<defs>
		<clipPath id="clip43_393">
			<rect id="Settings" rx="0.000000" width="23.000000" height="23.000000" transform="translate(0.500000 0.500000)" fill="white" fill-opacity="0"/>
		</clipPath>
	</defs>
	<rect id="Settings" rx="0.000000" width="23.000000" height="23.000000" transform="translate(0.500000 0.500000)" fill="#FFFFFF" fill-opacity="0"/>
	<g clip-path="url(#clip43_393)">
		<path id="Vector" d="M15 22.75L9 22.75C3.57 22.75 1.25 20.42 1.25 15L1.25 9C1.25 3.57 3.57 1.25 9 1.25L15 1.25C20.42 1.25 22.75 3.57 22.75 9L22.75 15C22.75 20.42 20.42 22.75 15 22.75ZM9 2.75C4.39 2.75 2.75 4.39 2.75 9L2.75 15C2.75 19.6 4.39 21.25 9 21.25L15 21.25C19.6 21.25 21.25 19.6 21.25 15L21.25 9C21.25 4.39 19.6 2.75 15 2.75L9 2.75Z" fill="#2E3094" fill-opacity="1.000000" fill-rule="nonzero"/>
		<path id="Vector" d="M15.57 19.25C15.16 19.25 14.82 18.91 14.82 18.5L14.82 14.6C14.82 14.19 15.16 13.85 15.57 13.85C15.98 13.85 16.32 14.19 16.32 14.6L16.32 18.5C16.32 18.91 15.98 19.25 15.57 19.25ZM15.57 8.19C15.16 8.19 14.82 7.85 14.82 7.44L14.82 5.5C14.82 5.08 15.16 4.75 15.57 4.75C15.98 4.75 16.32 5.08 16.32 5.5L16.32 7.44C16.32 7.85 15.98 8.19 15.57 8.19Z" fill="#2E3094" fill-opacity="1.000000" fill-rule="nonzero"/>
		<path id="Vector" d="M15.58 13.4C14.91 13.4 14.27 13.2 13.72 12.83C13.16 12.46 12.74 11.94 12.48 11.33C12.23 10.72 12.16 10.04 12.29 9.39C12.42 8.74 12.74 8.15 13.21 7.68C13.67 7.21 14.27 6.89 14.92 6.76C15.57 6.63 16.25 6.7 16.86 6.95C17.47 7.2 18 7.63 18.36 8.18C18.73 8.74 18.93 9.38 18.93 10.05C18.93 11.9 17.42 13.4 15.58 13.4ZM15.58 8.19C14.56 8.19 13.73 9.02 13.73 10.05C13.73 11.07 14.56 11.9 15.58 11.9C16.6 11.9 17.43 11.07 17.43 10.05C17.43 9.02 16.59 8.19 15.58 8.19ZM8.42 19.25C8.01 19.25 7.67 18.91 7.67 18.5L7.67 16.55C7.67 16.14 8.01 15.8 8.42 15.8C8.83 15.8 9.17 16.14 9.17 16.55L9.17 18.5C9.17 18.91 8.84 19.25 8.42 19.25ZM8.42 10.15C8.01 10.15 7.67 9.81 7.67 9.4L7.67 5.5C7.67 5.08 8.01 4.75 8.42 4.75C8.83 4.75 9.17 5.08 9.17 5.5L9.17 9.4C9.17 9.81 8.84 10.15 8.42 10.15Z" fill="#2E3094" fill-opacity="1.000000" fill-rule="nonzero"/>
		<path id="Vector" d="M8.42 17.3C7.98 17.3 7.54 17.21 7.13 17.04C6.73 16.87 6.36 16.63 6.05 16.32C5.74 16 5.49 15.64 5.32 15.23C5.15 14.82 5.07 14.39 5.07 13.95C5.07 13.51 5.15 13.07 5.32 12.66C5.49 12.26 5.74 11.89 6.05 11.58C6.36 11.27 6.73 11.02 7.13 10.85C7.54 10.68 7.98 10.6 8.42 10.6C9.3 10.6 10.16 10.95 10.78 11.58C11.41 12.21 11.76 13.06 11.76 13.95C11.76 14.83 11.41 15.69 10.78 16.32C10.16 16.94 9.3 17.3 8.42 17.3ZM8.42 12.1C7.39 12.1 6.57 12.93 6.57 13.95C6.57 14.97 7.39 15.8 8.42 15.8C9.44 15.8 10.26 14.97 10.26 13.95C10.26 12.93 9.44 12.1 8.42 12.1Z" fill="#2E3094" fill-opacity="1.000000" fill-rule="nonzero"/>
	</g>
</svg>
