<svg width="24" height="24" viewBox="0 0 24 24" fill="none" xmlns="http://www.w3.org/2000/svg">
<path d="M15 22.75H9C3.57 22.75 1.25 20.43 1.25 15V9C1.25 3.57 3.57 1.25 9 1.25H15C20.43 1.25 22.75 3.57 22.75 9V15C22.75 20.43 20.43 22.75 15 22.75ZM9 2.75C4.39 2.75 2.75 4.39 2.75 9V15C2.75 19.61 4.39 21.25 9 21.25H15C19.61 21.25 21.25 19.61 21.25 15V9C21.25 4.39 19.61 2.75 15 2.75H9Z" fill="#2E3094"/>
<path d="M15.5781 19.252C15.1681 19.252 14.8281 18.912 14.8281 18.502V14.602C14.8281 14.192 15.1681 13.852 15.5781 13.852C15.9881 13.852 16.3281 14.192 16.3281 14.602V18.502C16.3281 18.912 15.9881 19.252 15.5781 19.252ZM15.5781 8.2C15.1681 8.2 14.8281 7.86 14.8281 7.45V5.5C14.8281 5.09 15.1681 4.75 15.5781 4.75C15.9881 4.75 16.3281 5.09 16.3281 5.5V7.45C16.3281 7.86 15.9881 8.2 15.5781 8.2Z" fill="#2E3094"/>
<path d="M15.5819 13.4C14.9193 13.4 14.2716 13.2035 13.7207 12.8354C13.1698 12.4673 12.7404 11.9441 12.4869 11.332C12.2333 10.7199 12.167 10.0463 12.2962 9.39645C12.4255 8.74661 12.7446 8.1497 13.2131 7.68119C13.6816 7.21269 14.2785 6.89363 14.9283 6.76437C15.5782 6.63511 16.2517 6.70145 16.8639 6.955C17.476 7.20856 17.9992 7.63794 18.3673 8.18884C18.7354 8.73974 18.9319 9.38743 18.9319 10.05C18.9319 11.9 17.4219 13.4 15.5819 13.4ZM15.5819 8.2C14.5619 8.2 13.7319 9.03 13.7319 10.05C13.7319 11.07 14.5619 11.9 15.5819 11.9C16.6019 11.9 17.4319 11.07 17.4319 10.05C17.4319 9.03 16.5919 8.2 15.5819 8.2ZM8.42188 19.25C8.01188 19.25 7.67188 18.91 7.67188 18.5V16.55C7.67188 16.14 8.01188 15.8 8.42188 15.8C8.83187 15.8 9.17188 16.14 9.17188 16.55V18.5C9.17188 18.91 8.84187 19.25 8.42188 19.25ZM8.42188 10.15C8.01188 10.15 7.67188 9.81 7.67188 9.4V5.5C7.67188 5.09 8.01188 4.75 8.42188 4.75C8.83187 4.75 9.17188 5.09 9.17188 5.5V9.4C9.17188 9.81 8.84187 10.15 8.42188 10.15Z" fill="#2E3094"/>
<path d="M8.42031 17.3016C7.98038 17.3016 7.54476 17.2149 7.13832 17.0466C6.73188 16.8782 6.36258 16.6314 6.05151 16.3204C5.74043 16.0093 5.49367 15.64 5.32532 15.2336C5.15696 14.8271 5.07031 14.3915 5.07031 13.9516C5.07031 13.5116 5.15696 13.076 5.32532 12.6696C5.49367 12.2631 5.74043 11.8938 6.05151 11.5828C6.36258 11.2717 6.73188 11.0249 7.13832 10.8566C7.54476 10.6882 7.98038 10.6016 8.42031 10.6016C9.30879 10.6016 10.1609 10.9545 10.7891 11.5828C11.4174 12.211 11.7703 13.0631 11.7703 13.9516C11.7703 14.84 11.4174 15.6921 10.7891 16.3204C10.1609 16.9486 9.30879 17.3016 8.42031 17.3016ZM8.42031 12.1016C7.40031 12.1016 6.57031 12.9316 6.57031 13.9516C6.57031 14.9716 7.40031 15.8016 8.42031 15.8016C9.44031 15.8016 10.2703 14.9716 10.2703 13.9516C10.2703 12.9316 9.45031 12.1016 8.42031 12.1016Z" fill="#2E3094"/>
</svg>
